<svg xmlns="http://www.w3.org/2000/svg" viewBox="0 0 64 64">
  <defs>
    <linearGradient id="g" x1="0" x2="1" y1="0" y2="1">
      <stop stop-color="#38bdf8"/>
      <stop offset="1" stop-color="#f59e0b"/>
    </linearGradient>
  </defs>
  <circle cx="32" cy="32" r="27" fill="#0f172a"/>
  <path fill="url(#g)" d="M32 10a4 4 0 0 1 4 4v5a4 4 0 0 1-8 0v-5a4 4 0 0 1 4-4Zm0 31a9 9 0 1 0 0-18 9 9 0 0 0 0 18Zm17.6-20.5 3.5-3.5a4 4 0 1 1 5.7 5.7l-3.6 3.5a4 4 0 0 1-5.6-5.7ZM53 32a4 4 0 0 1-4 4h-5a4 4 0 0 1 0-8h5a4 4 0 0 1 4 4ZM18.8 20.5a4 4 0 0 1-5.6 5.7l-3.6-3.5a4 4 0 1 1 5.7-5.7l3.5 3.5ZM24 50a4 4 0 0 1-4 4h-5a4 4 0 0 1 0-8h5a4 4 0 0 1 4 4Z"/>
</svg>

